<?xml version="1.0" standalone="no"?><!-- Generator: Gravit.io --><svg xmlns="http://www.w3.org/2000/svg" xmlns:xlink="http://www.w3.org/1999/xlink" style="isolation:isolate" viewBox="377.375 435 410.681 518.771" width="410.681" height="518.771"><g><g><g opacity="0"><rect x="397.966" y="435" width="369.5" height="369.5" transform="matrix(1,0,0,1,0,0)" fill="rgb(255,255,255)"/></g><g><linearGradient id="_lgradient_132" x1="1" y1="0.5" x2="0" y2="0.5000000000000003" gradientTransform="matrix(0,371.624,-321.836,0,784.493,440.571)" gradientUnits="userSpaceOnUse"><stop offset="0%" stop-opacity="1" style="stop-color:rgb(255,255,255)"/><stop offset="98.26086956521739%" stop-opacity="1" style="stop-color:rgb(255,236,208)"/></linearGradient><path d=" M 462.657 728.585 L 462.657 626.383 L 462.657 524.181 C 462.657 478.035 495.102 459.303 535.065 482.376 L 623.575 533.477 L 712.085 584.578 C 752.048 607.651 752.048 645.115 712.085 668.188 L 623.575 719.289 L 535.065 770.39 C 495.102 793.463 462.657 774.731 462.657 728.585 Z " fill="url(#_lgradient_132)"/><clipPath id="_clipPath_DQvLVogv26Jrs2vUxJVIs8HftNrM4RXo"><path d=" M 462.657 728.585 L 462.657 626.383 L 462.657 524.181 C 462.657 478.035 495.102 459.303 535.065 482.376 L 623.575 533.477 L 712.085 584.578 C 752.048 607.651 752.048 645.115 712.085 668.188 L 623.575 719.289 L 535.065 770.39 C 495.102 793.463 462.657 774.731 462.657 728.585 Z " fill="url(#_lgradient_132)"/></clipPath><g clip-path="url(#_clipPath_DQvLVogv26Jrs2vUxJVIs8HftNrM4RXo)"><path d=" M 549.31 602.013 C 543.807 667.938 511.254 698.182 438.519 692.319 Q 458.267 783.478 588.425 752.767 C 718.582 722.055 555.836 523.814 549.31 602.013 Z " fill="rgb(255,127,0)"/><clipPath id="_clipPath_tAserpmlYCxhQYy1rpxhPTlrkevoRMhX"><path d=" M 549.31 602.013 C 543.807 667.938 511.254 698.182 438.519 692.319 Q 458.267 783.478 588.425 752.767 C 718.582 722.055 555.836 523.814 549.31 602.013 Z " fill="rgb(255,127,0)"/></clipPath><g clip-path="url(#_clipPath_tAserpmlYCxhQYy1rpxhPTlrkevoRMhX)"><linearGradient id="_lgradient_133" x1="0.8535533905932737" y1="0.8535533905932738" x2="0.14644660940672627" y2="0.14644660940672627" gradientTransform="matrix(199.258,0,0,199.837,520.282,601.802)" gradientUnits="userSpaceOnUse"><stop offset="33.47826086956522%" stop-opacity="1" style="stop-color:rgb(255,255,255)"/><stop offset="100%" stop-opacity="1" style="stop-color:rgb(255,145,0)"/></linearGradient><path d=" M 561.144 602.013 Q 585.556 615.914 589.782 673.816 Q 594.008 731.717 520.282 801.639 L 688.269 758.333 Q 762.602 648.82 660.246 624.223 Q 557.889 599.626 561.144 602.013 Z " fill="url(#_lgradient_133)"/></g></g><linearGradient id="_lgradient_134" x1="1" y1="0.5" x2="0" y2="0.5000000000000001" gradientTransform="matrix(243.772,0,0,128.082,419.7,650.872)" gradientUnits="userSpaceOnUse"><stop offset="0%" stop-opacity="1" style="stop-color:rgb(255,208,0)"/><stop offset="100%" stop-opacity="1" style="stop-color:rgb(255,98,0)"/></linearGradient><path d=" M 462.657 665.078 Q 508.278 640.876 553.81 657.906 C 599.342 674.936 630.599 735.174 663.472 720.018 Q 595.252 778.743 540.539 778.954 Q 485.825 779.164 419.7 728.4 Q 431.672 682.261 462.657 665.078 Z " fill="url(#_lgradient_134)"/><clipPath id="_clipPath_1YtXVxyKZX9szgfXNB4b4FFkbUw7UIr1"><path d=" M 462.657 665.078 Q 508.278 640.876 553.81 657.906 C 599.342 674.936 630.599 735.174 663.472 720.018 Q 595.252 778.743 540.539 778.954 Q 485.825 779.164 419.7 728.4 Q 431.672 682.261 462.657 665.078 Z " fill="url(#_lgradient_134)"/></clipPath><g clip-path="url(#_clipPath_1YtXVxyKZX9szgfXNB4b4FFkbUw7UIr1)"><linearGradient id="_lgradient_135" x1="1" y1="0.5" x2="0" y2="0.4999999999999999" gradientTransform="matrix(167.215,0,0,106.869,507.783,689.881)" gradientUnits="userSpaceOnUse"><stop offset="0%" stop-opacity="1" style="stop-color:rgb(255,255,255)"/><stop offset="100%" stop-opacity="1" style="stop-color:rgb(255,223,175)"/></linearGradient><path d=" M 674.432 689.881 Q 618.957 727.26 593.973 712.931 C 568.989 698.602 540.932 700.203 520.066 731.092 Q 499.2 761.98 513.779 796.749 Q 684.549 750.905 674.432 689.881 Z " fill="url(#_lgradient_135)"/></g><g><linearGradient id="_lgradient_136" x1="0.8535533905932737" y1="0.14644660940672616" x2="0.14644660940672627" y2="0.8535533905932737" gradientTransform="matrix(55.942,20.957,-34.841,93.004,543.347,428.673)" gradientUnits="userSpaceOnUse"><stop offset="0%" stop-opacity="1" style="stop-color:rgb(255,179,0)"/><stop offset="100%" stop-opacity="1" style="stop-color:rgb(255,81,0)"/></linearGradient><path d=" M 578.931 503.974 C 580.657 486.394 587.453 468.301 599.29 449.63 C 569.768 449.11 548.605 456.997 535.771 473.224 Q 524.517 487.452 508.618 521.378 Q 551.835 540.301 558.761 523.758 Q 565.688 507.215 578.931 503.974 Z " fill="url(#_lgradient_136)"/><linearGradient id="_lgradient_137" x1="0.1464466094067262" y1="0.14644660940672627" x2="0.8535533905932737" y2="0.8535533905932737" gradientTransform="matrix(-55.942,-20.957,-34.841,93.004,717.342,493.855)" gradientUnits="userSpaceOnUse"><stop offset="0%" stop-opacity="1" style="stop-color:rgb(255,179,0)"/><stop offset="100%" stop-opacity="1" style="stop-color:rgb(255,81,0)"/></linearGradient><path d=" M 641.041 527.242 C 651.291 512.855 658.055 494.75 661.399 472.898 C 683.996 491.902 694.768 511.752 693.782 532.418 Q 692.917 550.538 682.613 586.559 Q 637.6 572.431 643.248 555.409 Q 648.896 538.386 641.041 527.242 Z " fill="url(#_lgradient_137)"/><linearGradient id="_lgradient_138" x1="0.8535533905932737" y1="0.14644660940672616" x2="0.14644660940672627" y2="0.8535533905932737" gradientTransform="matrix(212.581,79.637,-42.465,113.354,508.599,463.045)" gradientUnits="userSpaceOnUse"><stop offset="0%" stop-opacity="1" style="stop-color:rgb(255,179,0)"/><stop offset="100%" stop-opacity="1" style="stop-color:rgb(255,81,0)"/></linearGradient><path d=" M 476.265 549.356 C 530.557 610.775 601.458 637.409 688.846 628.993 C 684.364 565.167 664.715 533.291 614.09 502.564 C 552.882 494.132 506.95 509.751 476.265 549.356 Z " fill="url(#_lgradient_138)"/><clipPath id="_clipPath_tvBXQWEhl6FclUSHYVpNjVKCUwV5OuB4"><path d=" M 476.265 549.356 C 530.557 610.775 601.458 637.409 688.846 628.993 C 684.364 565.167 664.715 533.291 614.09 502.564 C 552.882 494.132 506.95 509.751 476.265 549.356 Z " fill="url(#_lgradient_138)"/></clipPath><g clip-path="url(#_clipPath_tvBXQWEhl6FclUSHYVpNjVKCUwV5OuB4)"><linearGradient id="_lgradient_139" x1="0.14644660940672632" y1="0.8535533905932738" x2="0.8535533905932737" y2="0.14644660940672616" gradientTransform="matrix(232.866,87.236,-20.999,56.054,476.302,534.661)" gradientUnits="userSpaceOnUse"><stop offset="0%" stop-opacity="1" style="stop-color:rgb(255,153,0)"/><stop offset="100%" stop-opacity="1" style="stop-color:rgb(255,255,255)"/></linearGradient><path d=" M 471.47 547.56 C 511.663 544.945 548.702 558.839 582.556 589.175 C 630.537 587.529 665.978 600.824 688.846 628.993 Q 726.299 675.128 619.933 652.389 L 468.481 570.135 L 471.47 547.56 Z " fill="url(#_lgradient_139)"/></g><linearGradient id="_lgradient_140" x1="0.8535533905932737" y1="0.1464466094067262" x2="0.14644660940672627" y2="0.8535533905932737" gradientTransform="matrix(2,0,0,2,-1,-1)" gradientUnits="userSpaceOnUse"><stop offset="0%" stop-opacity="1" style="stop-color:rgb(116,116,116)"/><stop offset="100%" stop-opacity="1" style="stop-color:rgb(0,0,0)"/></linearGradient><circle vector-effect="non-scaling-stroke" cx="0" cy="0" r="1" transform="matrix(7.445,2.789,-2.789,7.445,610.207,562.457)" fill="url(#_lgradient_140)"/><linearGradient id="_lgradient_141" x1="0.8535533905932737" y1="0.1464466094067262" x2="0.14644660940672627" y2="0.8535533905932737" gradientTransform="matrix(2,0,0,2,-1,-1)" gradientUnits="userSpaceOnUse"><stop offset="0%" stop-opacity="1" style="stop-color:rgb(116,116,116)"/><stop offset="100%" stop-opacity="1" style="stop-color:rgb(0,0,0)"/></linearGradient><circle vector-effect="non-scaling-stroke" cx="0" cy="0" r="1" transform="matrix(7.445,2.789,-2.789,7.445,579.265,550.865)" fill="url(#_lgradient_141)"/></g><path d=" M 582.717 589.541 L 580.807 595.53 L 585.311 602.098" fill="none" vector-effect="non-scaling-stroke" stroke-width="1" stroke="rgb(170,88,0)" stroke-linejoin="miter" stroke-linecap="square" stroke-miterlimit="3"/><line x1="573.333" y1="598.279" x2="580.807" y2="595.53" vector-effect="non-scaling-stroke" stroke-width="1" stroke="rgb(170,88,0)" stroke-linejoin="miter" stroke-linecap="square" stroke-miterlimit="3"/><linearGradient id="_lgradient_142" x1="0.8535533905932737" y1="0.14644660940672616" x2="0.14644660940672627" y2="0.8535533905932737" gradientTransform="matrix(9.548,1.582,-2.275,13.732,576.847,576.283)" gradientUnits="userSpaceOnUse"><stop offset="0%" stop-opacity="1" style="stop-color:rgb(116,116,116)"/><stop offset="100%" stop-opacity="1" style="stop-color:rgb(0,0,0)"/></linearGradient><path d=" M 582.003 589.12 L 579.66 585.582 L 577.945 583.849 C 576.833 582.725 576.434 580.634 577.054 579.18 C 578.161 576.582 581.586 575.693 583.892 577.413 C 585.159 578.357 585.848 580.361 585.431 581.885 L 584.788 584.237 L 584.051 588.683 C 583.793 590.241 582.875 590.437 582.003 589.12 Z " fill="url(#_lgradient_142)"/></g></g><path d=" M 385.888 930.29 L 385.888 880.709 L 394.869 880.709 L 394.869 930.29 L 385.888 930.29 L 385.888 930.29 Z  M 390.378 871.167 L 390.378 871.167 Q 387.759 871.167 386.028 869.483 L 386.028 869.483 L 386.028 869.483 Q 384.298 867.799 384.298 865.367 L 384.298 865.367 L 384.298 865.367 Q 384.298 862.935 386.028 861.204 L 386.028 861.204 L 386.028 861.204 Q 387.759 859.473 390.378 859.473 L 390.378 859.473 L 390.378 859.473 Q 392.998 859.473 394.728 861.111 L 394.728 861.111 L 394.728 861.111 Q 396.459 862.748 396.459 865.18 L 396.459 865.18 L 396.459 865.18 Q 396.459 867.706 394.728 869.436 L 394.728 869.436 L 394.728 869.436 Q 392.998 871.167 390.378 871.167 L 390.378 871.167 L 390.378 871.167 Z  M 426.301 930.29 L 426.301 872.944 L 403.849 872.944 L 403.849 864.806 L 458.014 864.806 L 458.014 872.944 L 435.563 872.944 L 435.563 930.29 L 426.301 930.29 L 426.301 930.29 Z  M 504.134 880.709 L 513.115 880.709 L 513.115 930.29 L 504.602 930.29 L 504.602 922.806 L 504.602 922.806 Q 501.889 926.642 497.445 928.747 L 497.445 928.747 L 497.445 928.747 Q 493.002 930.851 487.763 930.851 L 487.763 930.851 L 487.763 930.851 Q 477.847 930.851 472.14 925.379 L 472.14 925.379 L 472.14 925.379 Q 466.434 919.906 466.434 909.242 L 466.434 909.242 L 466.434 880.709 L 475.415 880.709 L 475.415 908.213 L 475.415 908.213 Q 475.415 915.416 478.876 919.111 L 478.876 919.111 L 478.876 919.111 Q 482.337 922.806 488.792 922.806 L 488.792 922.806 L 488.792 922.806 Q 495.902 922.806 500.018 918.503 L 500.018 918.503 L 500.018 918.503 Q 504.134 914.2 504.134 906.342 L 504.134 906.342 L 504.134 880.709 L 504.134 880.709 Z  M 556.522 880.241 L 556.522 880.241 Q 563.725 880.241 569.432 883.422 L 569.432 883.422 L 569.432 883.422 Q 575.138 886.603 578.366 892.309 L 578.366 892.309 L 578.366 892.309 Q 581.593 898.016 581.593 905.5 L 581.593 905.5 L 581.593 905.5 Q 581.593 912.984 578.366 918.737 L 578.366 918.737 L 578.366 918.737 Q 575.138 924.49 569.432 927.671 L 569.432 927.671 L 569.432 927.671 Q 563.725 930.851 556.522 930.851 L 556.522 930.851 L 556.522 930.851 Q 551.002 930.851 546.419 928.7 L 546.419 928.7 L 546.419 928.7 Q 541.835 926.548 538.841 922.432 L 538.841 922.432 L 538.841 930.29 L 530.235 930.29 L 530.235 860.877 L 539.215 860.877 L 539.215 888.193 L 539.215 888.193 Q 542.209 884.264 546.699 882.253 L 546.699 882.253 L 546.699 882.253 Q 551.19 880.241 556.522 880.241 L 556.522 880.241 L 556.522 880.241 Z  M 555.773 922.993 L 555.773 922.993 Q 560.544 922.993 564.333 920.795 L 564.333 920.795 L 564.333 920.795 Q 568.122 918.597 570.32 914.621 L 570.32 914.621 L 570.32 914.621 Q 572.519 910.645 572.519 905.5 L 572.519 905.5 L 572.519 905.5 Q 572.519 900.354 570.32 896.379 L 570.32 896.379 L 570.32 896.379 Q 568.122 892.403 564.333 890.251 L 564.333 890.251 L 564.333 890.251 Q 560.544 888.099 555.773 888.099 L 555.773 888.099 L 555.773 888.099 Q 551.096 888.099 547.26 890.251 L 547.26 890.251 L 547.26 890.251 Q 543.425 892.403 541.273 896.379 L 541.273 896.379 L 541.273 896.379 Q 539.122 900.354 539.122 905.5 L 539.122 905.5 L 539.122 905.5 Q 539.122 910.645 541.273 914.621 L 541.273 914.621 L 541.273 914.621 Q 543.425 918.597 547.26 920.795 L 547.26 920.795 L 547.26 920.795 Q 551.096 922.993 555.773 922.993 L 555.773 922.993 L 555.773 922.993 Z  M 638.845 905.78 L 638.845 905.78 Q 638.845 906.809 638.658 908.493 L 638.658 908.493 L 598.432 908.493 L 598.432 908.493 Q 599.274 915.042 604.185 919.018 L 604.185 919.018 L 604.185 919.018 Q 609.097 922.993 616.393 922.993 L 616.393 922.993 L 616.393 922.993 Q 625.281 922.993 630.706 917.006 L 630.706 917.006 L 635.665 922.806 L 635.665 922.806 Q 632.297 926.735 627.292 928.793 L 627.292 928.793 L 627.292 928.793 Q 622.287 930.851 616.113 930.851 L 616.113 930.851 L 616.113 930.851 Q 608.255 930.851 602.174 927.624 L 602.174 927.624 L 602.174 927.624 Q 596.093 924.397 592.772 918.597 L 592.772 918.597 L 592.772 918.597 Q 589.451 912.796 589.451 905.5 L 589.451 905.5 L 589.451 905.5 Q 589.451 898.296 592.679 892.496 L 592.679 892.496 L 592.679 892.496 Q 595.906 886.696 601.566 883.469 L 601.566 883.469 L 601.566 883.469 Q 607.226 880.241 614.335 880.241 L 614.335 880.241 L 614.335 880.241 Q 621.445 880.241 627.011 883.469 L 627.011 883.469 L 627.011 883.469 Q 632.577 886.696 635.711 892.496 L 635.711 892.496 L 635.711 892.496 Q 638.845 898.296 638.845 905.78 L 638.845 905.78 L 638.845 905.78 Z  M 614.335 887.819 L 614.335 887.819 Q 607.88 887.819 603.53 891.748 L 603.53 891.748 L 603.53 891.748 Q 599.18 895.677 598.432 902.038 L 598.432 902.038 L 630.239 902.038 L 630.239 902.038 Q 629.49 895.771 625.14 891.795 L 625.14 891.795 L 625.14 891.795 Q 620.79 887.819 614.335 887.819 L 614.335 887.819 L 614.335 887.819 Z " fill-rule="evenodd" fill="rgb(232,232,232)"/><path d=" M 668.126 867.706 L 668.126 867.706 Q 660.081 867.706 660.081 876.406 L 660.081 876.406 L 660.081 880.709 L 674.581 880.709 L 674.581 888.099 L 660.268 888.099 L 660.268 930.29 L 651.287 930.29 L 651.287 876.312 L 651.287 876.312 Q 651.287 868.922 655.591 864.619 L 655.591 864.619 L 655.591 864.619 Q 659.894 860.315 667.658 860.315 L 667.658 860.315 L 667.658 860.315 Q 670.652 860.315 673.271 861.064 L 673.271 861.064 L 673.271 861.064 Q 675.891 861.812 677.762 863.215 L 677.762 863.215 L 675.049 870.044 L 675.049 870.044 Q 671.962 867.706 668.126 867.706 L 668.126 867.706 L 668.126 867.706 Z  M 704.236 930.851 L 704.236 930.851 Q 696.846 930.851 690.952 927.577 L 690.952 927.577 L 690.952 927.577 Q 685.059 924.303 681.738 918.55 L 681.738 918.55 L 681.738 918.55 Q 678.417 912.796 678.417 905.5 L 678.417 905.5 L 678.417 905.5 Q 678.417 898.203 681.738 892.45 L 681.738 892.45 L 681.738 892.45 Q 685.059 886.696 690.952 883.469 L 690.952 883.469 L 690.952 883.469 Q 696.846 880.241 704.236 880.241 L 704.236 880.241 L 704.236 880.241 Q 711.627 880.241 717.473 883.469 L 717.473 883.469 L 717.473 883.469 Q 723.32 886.696 726.641 892.45 L 726.641 892.45 L 726.641 892.45 Q 729.962 898.203 729.962 905.5 L 729.962 905.5 L 729.962 905.5 Q 729.962 912.796 726.641 918.55 L 726.641 918.55 L 726.641 918.55 Q 723.32 924.303 717.473 927.577 L 717.473 927.577 L 717.473 927.577 Q 711.627 930.851 704.236 930.851 L 704.236 930.851 L 704.236 930.851 Z  M 704.236 922.993 L 704.236 922.993 Q 709.007 922.993 712.796 920.795 L 712.796 920.795 L 712.796 920.795 Q 716.585 918.597 718.736 914.621 L 718.736 914.621 L 718.736 914.621 Q 720.888 910.645 720.888 905.5 L 720.888 905.5 L 720.888 905.5 Q 720.888 900.354 718.736 896.379 L 718.736 896.379 L 718.736 896.379 Q 716.585 892.403 712.796 890.251 L 712.796 890.251 L 712.796 890.251 Q 709.007 888.099 704.236 888.099 L 704.236 888.099 L 704.236 888.099 Q 699.465 888.099 695.676 890.251 L 695.676 890.251 L 695.676 890.251 Q 691.888 892.403 689.689 896.379 L 689.689 896.379 L 689.689 896.379 Q 687.491 900.354 687.491 905.5 L 687.491 905.5 L 687.491 905.5 Q 687.491 910.645 689.689 914.621 L 689.689 914.621 L 689.689 914.621 Q 691.888 918.597 695.676 920.795 L 695.676 920.795 L 695.676 920.795 Q 699.465 922.993 704.236 922.993 L 704.236 922.993 L 704.236 922.993 Z  M 784.221 930.29 L 774.024 930.29 L 759.711 911.3 L 745.211 930.29 L 735.201 930.29 L 754.753 904.938 L 736.136 880.709 L 746.146 880.709 L 759.804 898.577 L 773.369 880.709 L 783.192 880.709 L 764.482 904.938 L 784.221 930.29 L 784.221 930.29 Z " fill-rule="evenodd" fill="rgb(255,115,0)"/></g></svg>